<svg width="33" height="32" viewBox="0 0 33 32" fill="none" xmlns="http://www.w3.org/2000/svg">
<path d="M28 4H10C9.33696 4 8.70107 4.26339 8.23223 4.73223C7.76339 5.20107 7.5 5.83696 7.5 6.5V9H5C4.33696 9 3.70107 9.26339 3.23223 9.73223C2.76339 10.2011 2.5 10.837 2.5 11.5V25.5C2.5 26.163 2.76339 26.7989 3.23223 27.2678C3.70107 27.7366 4.33696 28 5 28H23C23.663 28 24.2989 27.7366 24.7678 27.2678C25.2366 26.7989 25.5 26.163 25.5 25.5V23H28C28.663 23 29.2989 22.7366 29.7678 22.2678C30.2366 21.7989 30.5 21.163 30.5 20.5V6.5C30.5 5.83696 30.2366 5.20107 29.7678 4.73223C29.2989 4.26339 28.663 4 28 4ZM22.5 12V14H5.5V12H22.5ZM22.5 25H5.5V17H22.5V25ZM27.5 20H25.5V11.5C25.5 10.837 25.2366 10.2011 24.7678 9.73223C24.2989 9.26339 23.663 9 23 9H10.5V7H27.5V20Z" fill="#99D4FF"/>
</svg>
